<svg xmlns="http://www.w3.org/2000/svg" viewBox="0 0 131.81 52.68"><defs><style>.cls-1{fill:#fff;}.cls-2{fill:#ffbf0c;}</style></defs><g id="Layer_2" data-name="Layer 2"><g id="Layer_1-2" data-name="Layer 1"><path class="cls-1" d="M76.65,39.08a7.42,7.42,0,0,1,.48,8.55,7.79,7.79,0,0,1-3.29,2.77,11.73,11.73,0,0,1-5,1H57.33V22.66h11a11.62,11.62,0,0,1,5,1,7.44,7.44,0,0,1,3.19,2.66,6.86,6.86,0,0,1,1.07,3.75,6.41,6.41,0,0,1-1.32,4.13,7.62,7.62,0,0,1-3.56,2.44A6.35,6.35,0,0,1,76.65,39.08Zm-14.6-4.34h5.83a5.61,5.61,0,0,0,3.62-1.05,3.69,3.69,0,0,0,1.3-3,3.74,3.74,0,0,0-1.3-3,5.45,5.45,0,0,0-3.62-1.1H62.05ZM72.18,46.41a4,4,0,0,0,1.37-3.23,4.17,4.17,0,0,0-1.45-3.35,5.71,5.71,0,0,0-3.85-1.24h-6.2v9h6.37A5.64,5.64,0,0,0,72.18,46.41Z"/><path class="cls-1" d="M102.46,35.36a7.76,7.76,0,0,1-3.31,3.17,12.3,12.3,0,0,1-5.83,1.22H88.11V51.41H83.39V22.66h9.93a12.52,12.52,0,0,1,5.61,1.14,8,8,0,0,1,3.43,3.08,8.46,8.46,0,0,1,1.14,4.35A8.64,8.64,0,0,1,102.46,35.36Zm-5.13-.68a4.44,4.44,0,0,0,1.33-3.45q0-4.73-5.34-4.72H88.11V35.9h5.21A5.76,5.76,0,0,0,97.33,34.68Z"/><path class="cls-1" d="M124.6,24.42a12.56,12.56,0,0,1,5.33,5,15.11,15.11,0,0,1,1.88,7.67,14.79,14.79,0,0,1-1.88,7.61,12.46,12.46,0,0,1-5.33,5,18,18,0,0,1-8,1.71h-9.39V22.66h9.39A17.58,17.58,0,0,1,124.6,24.42Zm-.31,20.41Q127,42.1,127,37.14c0-3.34-.89-5.94-2.68-7.82s-4.38-2.81-7.74-2.81h-4.67V47.57h4.67C119.91,47.57,122.49,46.65,124.29,44.83Z"/><rect class="cls-2" y="5.34" width="9.29" height="47.35" rx="4.65"/><rect class="cls-2" x="39.03" y="5.34" width="9.29" height="47.35" rx="4.65"/><rect class="cls-2" x="26.02" width="9.29" height="52.68" rx="4.65"/><rect class="cls-2" x="13.01" y="11.88" width="9.29" height="40.8" rx="4.65"/></g></g></svg>